<?xml version="1.0" encoding="utf-8"?>
<!-- Generator: Adobe Illustrator 21.1.0, SVG Export Plug-In . SVG Version: 6.00 Build 0)  -->
<svg version="1.1" id="Layer_1" xmlns="http://www.w3.org/2000/svg" xmlns:xlink="http://www.w3.org/1999/xlink" x="0px" y="0px"
	 viewBox="0 0 60 60" style="enable-background:new 0 0 60 60;" xml:space="preserve">
<style type="text/css">
	.st0{fill:#333333;}
</style>
<title>morphing-diamonds</title>
<rect class="st0" width="100" height="100"/>
<g id="Page-1">
	<g id="morphing-diamonds">
		<path id="Combined-Shape" d="M54.6,0l0.8,0.8L54,2.2L51.8,0H54.6z M5.4,0L4.5,0.8L6,2.2L8.2,0H5.4z M49,0l3.7,3.7l-1.5,1.4L46.1,0
			H49z M11,0L7.4,3.7l1.4,1.4L13.9,0H11z M43.3,0l6.5,6.5l-1.4,1.4L40.5,0H43.3z M16.7,0l-6.5,6.5l1.4,1.4L19.5,0H16.7z M37.7,0
			L47,9.3l-1.4,1.4L34.8,0H37.7z M22.3,0L13,9.3l1.4,1.4L25.2,0H22.3z M32,0l12.1,12.1l-1.4,1.4L30,0.8L17.3,13.6l-1.4-1.4L28,0H32z
			 M0.3,0l28,28l-1.4,1.4L0,2.5V0H0.3z M0,5.4l25.5,25.5L24,32.2L0,8.2V5.4z M0,11l22.6,22.7l-1.4,1.4L0,13.9V11z M0,16.7l19.8,19.8
			l-1.4,1.4L0,19.5V16.7L0,16.7z M0,22.3l17,17l-1.4,1.4L0,25.2V22.3L0,22.3z M0,28l14.1,14.1l-1.4,1.4L0,30.8V28z M0,33.7L11.3,45
			l-1.4,1.4L0,36.5V33.7z M0,39.3l8.5,8.5l-1.4,1.4L0,42.1V39.3L0,39.3z M0,45l5.7,5.7L4.2,52L0,47.8V45z M0,50.7l2.8,2.8l-1.4,1.4
			L0,53.5V50.7L0,50.7z M54.6,60L30,35.4L5.4,60h2.8L30,38.2L51.8,60H54.6z M49,60L30,41L11,60h2.8L30,43.9L46.1,60H49z M43.3,60
			L30,46.7L16.7,60h2.8L30,49.5L40.5,60H43.3z M37.7,60L30,52.3L22.3,60h2.8l4.8-4.8l4.8,4.8H37.7z M32,60l-2-2l-2,2H32z M59.7,0
			l-28,28l1.4,1.4L60,2.5V0H59.7z M60,5.4L34.5,30.8l1.5,1.4l24-24V5.4z M60,11L37.4,33.7l1.4,1.4L60,13.9V11z M60,16.7L40.2,36.5
			l1.4,1.4L60,19.5V16.7L60,16.7z M60,22.3l-17,17l1.4,1.4L60,25.2V22.3L60,22.3z M60,28L45.9,42.1l1.4,1.4L60,30.8V28z M60,33.7
			L48.7,45l1.4,1.4l9.9-9.9V33.7z M60,39.3l-8.5,8.5l1.4,1.4l7.1-7.1V39.3L60,39.3z M60,45l-5.7,5.7l1.4,1.3l4.2-4.2V45z M60,50.7
			l-2.8,2.8l1.4,1.4l1.4-1.4V50.7L60,50.7z M39.9,16.4l1.4-1.4L30,3.7L18.7,15l1.4,1.4L30,6.5L39.9,16.4L39.9,16.4z M37.1,19.2
			l1.4-1.4L30,9.3l-8.5,8.5l1.4,1.4l7.1-7.1C30,12.1,37.1,19.2,37.1,19.2z M34.2,22l1.4-1.4L30,15l-5.7,5.7l1.4,1.3l4.2-4.2L34.2,22
			z M31.4,24.8l1.4-1.4L30,20.6l-2.8,2.8l1.4,1.4l1.4-1.4L31.4,24.8L31.4,24.8z M56.9,59.4l1.4-1.4L30,29.7L1.7,58l1.4,1.4L30,32.5
			L56.9,59.4z"/>
	</g>
</g>
</svg>
